<svg xmlns="http://www.w3.org/2000/svg" viewBox="0 0 496 1469" width="0.5em" height="1.47em"><path d="M468 847C468 793 442 777 424 777C399 777 375 803 375 825C375 838 380 844 391 855C412 875 425 901 425 937C425 979 364 1208 247 1208C196 1208 173 1173 173 1121C173 1065 200 992 231 909C238 892 243 878 243 859C243 814 211 777 161 777C67 777 29 922 29 931C29 941 41 941 41 941C51 941 52 939 57 923C86 822 129 799 158 799C166 799 183 799 183 831C183 856 173 883 166 901C122 1017 109 1063 109 1106C109 1214 197 1230 243 1230Z"/><path d="M426 65C410 40 402 20 402 6C402 1 404 -4 409 -8C413 -12 417 -14 422 -14C427 -14 431 -12 434 -9C437 -6 441 0 444 10C451 35 464 54 485 67C492 72 496 78 496 85C496 91 495 95 493 97C491 99 486 102 479 106C450 121 425 142 404 169C403 170 402 171 401 173C399 175 398 176 397 176C396 177 396 178 395 179C394 180 393 181 392 181C391 181 391 181 390 182C389 183 387 183 386 183C385 183 383 183 382 183C377 183 372 181 368 178C364 175 362 170 362 164C362 151 378 132 409 105L238 105L67 104C58 98 54 92 54 85C54 80 58 74 67 65Z"/></svg>